<svg width="14" height="15" viewBox="0 0 14 15" fill="none" xmlns="http://www.w3.org/2000/svg">
<path d="M12.0709 0.599854H2.34163C1.24317 0.599854 0.40625 1.43678 0.40625 2.53524V12.2645C0.40625 13.3629 1.24317 14.1999 2.34163 14.1999H12.0709C13.1693 14.1999 14.0062 13.3629 14.0062 12.2645V2.53524C14.0062 1.43678 13.1693 0.599854 12.0709 0.599854ZM7.20625 11.4799C9.45548 11.4799 11.2863 9.70139 11.2863 7.55678C11.2863 7.19062 11.2339 6.77216 11.1293 6.45831H12.2801V12.0029C12.2801 12.2645 12.0709 12.526 11.757 12.526H2.65548C2.39394 12.526 2.13241 12.3168 2.13241 12.0029V6.40601H3.33548C3.23087 6.77216 3.17856 7.13832 3.17856 7.50447C3.12625 9.70139 4.95702 11.4799 7.20625 11.4799ZM7.20625 9.91062C5.74163 9.91062 4.59087 8.75985 4.59087 7.34755C4.59087 5.93524 5.74163 4.78447 7.20625 4.78447C8.67087 4.78447 9.82163 5.93524 9.82163 7.34755C9.82163 8.81216 8.67087 9.91062 7.20625 9.91062ZM12.2278 4.3137C12.2278 4.62754 11.9662 4.88908 11.6524 4.88908H10.1878C9.87394 4.88908 9.61241 4.62754 9.61241 4.3137V2.90139C9.61241 2.58755 9.87394 2.32601 10.1878 2.32601H11.6524C11.9662 2.32601 12.2278 2.58755 12.2278 2.90139V4.3137Z" fill="white"/>
</svg>
