<svg width="1330" height="100" viewBox="0 0 1330 100" fill="none" xmlns="http://www.w3.org/2000/svg">
<path fill-rule="evenodd" clip-rule="evenodd" d="M349.475 19.5902C354.55 19.5902 359.45 20.2766 364.175 21.6491C368.9 23.1933 373.1 25.2522 376.6 27.8258L387.275 12.7273C382.55 8.78107 376.775 5.69271 370.3 3.8054C363.825 1.91808 356.65 0.888672 348.95 0.888672C343.175 0.888672 338.1 1.4034 333.2 2.776C328.65 3.97702 324.45 5.86435 321.125 8.26639C317.8 10.6684 315.175 13.7567 313.425 17.3598C311.5 20.7913 310.625 25.0806 310.625 29.7131C310.625 38.2919 313.25 44.8116 318.325 49.2725C323.4 53.7335 330.75 56.6502 340.025 57.8512L354.725 59.7386C359.625 60.4249 363.125 61.6259 365.225 63.1701C367.325 64.7143 368.375 66.9447 368.375 69.6899C368.375 72.9498 366.8 75.3519 363.825 77.2392C360.675 78.9549 355.95 79.9843 349.65 79.9843C343.7 79.9843 337.925 79.298 332.675 77.9254C327.25 76.5528 321.825 74.1508 316.575 70.8909L307.475 88.2199C313.6 92.3376 320.075 95.0829 326.55 96.627C333.025 98.1712 340.375 99.029 348.25 99.029C355.075 99.029 361.025 98.3427 366.1 96.7986C371.35 95.426 375.725 93.3671 379.225 90.6219C382.725 88.0483 385.175 84.7884 387.1 81.0137C389.025 77.2391 389.9 73.1213 389.9 68.4888C389.9 60.4249 387.275 54.0766 382.2 49.2725C376.95 44.1253 369.075 41.037 358.575 39.6644L344.575 37.7772C340.025 37.2624 336.875 36.233 334.95 34.8604C333.025 33.6594 331.975 31.6005 331.975 28.8553C331.975 25.9385 333.2 23.7081 336 21.9923C338.8 20.4481 343.175 19.5902 349.475 19.5902ZM184.625 21.821H235.2V2.77637H163.45V96.7989H237.65V77.9258H184.625V57.8516H229.775V39.4933H184.625V21.821ZM655.725 44.8114H657.125L678.65 2.94727H704.2L666.925 65.5718V96.9699H645.4V65.5718L608.125 2.94727H633.85L655.725 44.8114ZM798.7 21.821H849.275V2.77637H777.525V96.7989H851.725V77.9258H798.7V57.8516H843.85V39.4933H798.7V21.821ZM1014.47 96.9699H993.125L948.85 36.919V96.9699H927.85V2.94727H947.1L993.65 66.4297V2.94727H1014.47V96.9699ZM1115.45 21.821H1166.02V2.77637H1094.27V96.7989H1168.47V77.9258H1115.45V57.8516H1160.6V39.4933H1115.45V21.821ZM1305.85 63.3414C1311.97 60.7677 1316.88 56.9931 1320.38 52.189C1323.88 47.2134 1325.45 41.5515 1325.45 35.0316C1325.45 30.056 1324.57 25.7666 1322.65 21.8204C1320.72 17.8742 1318.27 14.4428 1315.12 11.6976C1311.62 8.95242 1307.78 6.72198 1303.22 5.17781C1298.67 3.63365 1293.6 2.94727 1288 2.94727H1244.6C1244.6 13.4133 1253.17 21.8204 1263.85 21.8204H1266.12H1267.52H1287.12C1292.2 21.8204 1296.22 23.0215 1299.2 25.4235C1302.18 27.9971 1303.57 31.4286 1303.57 35.8895C1303.57 40.3504 1302 43.9536 1298.85 46.3556C1295.88 48.9292 1291.67 50.1301 1286.6 50.1301H1267.52H1266.12H1244.6V96.9699H1266.12V68.8317H1285.55L1303.22 96.9699H1329.3L1305.85 63.3414ZM537.425 21.821H486.85H485.1C474.25 21.821 465.675 13.2424 465.675 2.77637H537.425V21.821ZM486.85 78.0973V58.0231H532V39.4932H486.85H465.675V96.9705H539.875V78.0973H486.85ZM74.0249 15.9876C78.5749 20.1054 82.0749 25.081 84.5249 30.9146C86.9749 36.5765 88.1999 43.0962 88.0249 50.1308C88.0249 56.9937 86.7999 63.1704 84.3499 69.0039C81.8999 74.6659 78.2249 79.6415 73.6749 83.9309C69.1249 87.8771 63.6999 91.1371 57.0499 93.5391C50.7499 95.7696 43.3999 96.9706 35.5249 96.9706H0.524902V78.0974H21.8749H29.0499H35.6999C40.2499 78.0974 44.2749 77.4111 47.9499 76.21C51.7999 75.009 55.1249 72.9501 57.7499 70.7197C60.7249 68.146 62.6499 65.2294 64.3999 61.7979C65.7999 58.1948 66.6749 54.2486 66.6749 49.9592C66.6749 40.8658 64.0499 33.8313 58.6249 29.0272C53.5499 24.2231 45.6749 21.821 35.6999 21.821H29.2249H22.0499H20.1249C9.2749 21.821 0.699886 13.2424 0.699886 2.77637H36.0499C44.0999 2.77637 51.2749 3.97739 57.7499 6.20785C64.0499 8.60989 69.6499 11.6982 74.0249 15.9876Z" fill="#7BC9CE"/>
</svg>
