<svg width="209" height="16" viewBox="0 0 209 16" fill="none" xmlns="http://www.w3.org/2000/svg">
<g opacity="0.7">
<path d="M36.8775 3.48514H28.93V6.32062H36.025V9.26619H28.93V12.4871H37.2625V15.5152H25.6025V0.429443H36.8775V3.48514Z" fill="#010202"/>
<path d="M57.1451 3.45767C56.4026 3.23745 55.6326 3.12733 54.8351 3.12733C53.8451 3.12733 53.1576 3.26498 52.7176 3.51274C52.2776 3.78802 52.0851 4.14589 52.0851 4.61388C52.0851 5.05434 52.2501 5.38468 52.5526 5.57738C52.8551 5.79761 53.3501 5.96279 54.0651 6.04537L56.2651 6.34818C57.9151 6.56841 59.1526 7.06392 59.9776 7.88978C60.7751 8.66058 61.1876 9.67914 61.1876 10.973C61.1876 11.7163 61.0501 12.3769 60.7476 12.9826C60.4451 13.5882 60.0601 14.1113 59.5101 14.5242C58.9601 14.9646 58.2726 15.295 57.4476 15.5152C56.6501 15.763 55.7151 15.8731 54.6426 15.8731C53.4051 15.8731 52.2501 15.7354 51.2326 15.4877C50.2151 15.2399 49.1976 14.7995 48.2351 14.1388L49.6651 11.3584C50.4901 11.8814 51.3426 12.2668 52.1951 12.4871C53.0201 12.7073 53.9276 12.8174 54.8626 12.8174C55.8526 12.8174 56.5951 12.6522 57.0901 12.377C57.5576 12.0741 57.8051 11.6887 57.8051 11.1657C57.8051 10.7252 57.6401 10.3674 57.3101 10.1196C56.9801 9.87185 56.4301 9.67915 55.6601 9.56903L53.3501 9.26621C51.8926 9.07351 50.7376 8.60552 49.9401 7.88978C49.1426 7.17403 48.7301 6.12795 48.7301 4.75152C48.7301 4.00825 48.8676 3.32003 49.1701 2.76946C49.4451 2.19136 49.8576 1.69585 50.3801 1.31045C50.9026 0.925044 51.5626 0.622226 52.2776 0.429526C53.0476 0.209297 53.8451 0.126709 54.7526 0.126709C55.9626 0.126709 57.0901 0.291876 58.1076 0.594691C59.1251 0.897506 60.0326 1.39302 60.7751 2.02618L59.0976 4.4487C58.5476 4.03577 57.8876 3.70543 57.1451 3.45767Z" fill="#010202"/>
<path d="M102.96 7.17404H103.18L106.562 0.457031H110.577L104.72 10.505V15.5428H101.337V10.505L95.48 0.457031H99.5225L102.96 7.17404Z" fill="#010202"/>
<path d="M133.375 3.48514H125.428V6.32062H132.523V9.26619H125.428V12.4871H133.76V15.5152H122.1V0.429443H133.375V3.48514Z" fill="#010202"/>
<path d="M159.362 15.5428H155.98L149.022 5.90772V15.5428H145.722V0.457031H148.747L156.062 10.6426V0.457031H159.335V15.5428H159.362Z" fill="#010202"/>
<path d="M183.15 3.48514H175.203V6.32062H182.298V9.26619H175.203V12.4871H183.535V15.5152H171.875V0.429443H183.15V3.48514Z" fill="#010202"/>
<path d="M205.123 10.1471C206.085 9.7342 206.855 9.12857 207.405 8.35777C207.955 7.55944 208.203 6.65099 208.203 5.6049C208.203 4.80657 208.065 4.11835 207.763 3.48519C207.46 2.85203 207.075 2.30146 206.58 1.861C206.03 1.42055 205.425 1.06268 204.71 0.814918C203.995 0.567159 203.198 0.457031 202.318 0.457031H195.498C195.498 2.13628 196.845 3.48519 198.523 3.48519H198.88H199.1H202.18C202.978 3.48519 203.61 3.6779 204.078 4.0633C204.545 4.47623 204.765 5.0268 204.765 5.74254C204.765 6.45829 204.518 7.0364 204.023 7.4218C203.555 7.83473 202.895 8.02742 202.098 8.02742H199.1H198.88H195.498V15.5428H198.88V11.0281H201.933L204.71 15.5428H208.807L205.123 10.1471Z" fill="#010202"/>
<path d="M76.4225 3.48518H84.37V0.429443H73.095C73.095 2.10873 74.4425 3.48518 76.1475 3.48518H76.4225Z" fill="#010202"/>
<path d="M76.4225 12.5145V9.29366H83.5175V6.32056H76.4225H73.095V15.5427H84.755V12.5145H76.4225Z" fill="#010202"/>
<path d="M13.2 4.94417C12.815 4.00819 12.265 3.20985 11.55 2.54916C10.8625 1.86094 9.9825 1.36542 8.9925 0.980018C7.975 0.622145 6.8475 0.429443 5.5825 0.429443H0.0274975C0.0274975 2.1087 1.375 3.48513 3.08 3.48513H3.3825H4.51H5.5275C7.09499 3.48513 8.3325 3.87053 9.13 4.64134C9.9825 5.41214 10.395 6.54083 10.395 7.99985C10.395 8.68807 10.2575 9.32124 10.0375 9.89934C9.7625 10.4499 9.46 10.9179 8.9925 11.3308C8.58 11.6887 8.05749 12.019 7.45249 12.2117C6.87499 12.4044 6.2425 12.5146 5.5275 12.5146H4.4825H3.355H0V15.5427H5.5C6.7375 15.5427 7.8925 15.35 8.8825 14.9922C9.9275 14.6068 10.78 14.0837 11.495 13.4505C12.21 12.7623 12.7875 11.964 13.1725 11.0555C13.5575 10.1196 13.75 9.12852 13.75 8.02737C13.7775 6.89869 13.585 5.85261 13.2 4.94417Z" fill="#010202"/>
</g>
</svg>
