<svg width="1311" height="99" viewBox="0 0 1311 99" fill="none" xmlns="http://www.w3.org/2000/svg">
<path d="M83.6164 30.3258C81.1961 24.4506 77.7384 19.4393 73.2435 15.2921C68.9214 10.972 63.3892 7.86159 57.1654 5.44236C50.7687 3.19594 43.6806 1.98633 35.728 1.98633H0.805679C0.805679 12.5272 9.27693 21.1673 19.9957 21.1673H21.8974H28.9855H35.3822C45.2365 21.1673 53.0162 23.5865 58.0298 28.425C63.3892 33.2634 65.9824 40.3483 65.9824 49.5068C65.9824 53.8268 65.118 57.8013 63.7349 61.4301C62.0061 64.8862 60.1044 67.8237 57.1654 70.4157C54.5722 72.6622 51.2874 74.7358 47.484 75.9454C43.8534 77.155 39.8771 77.8463 35.3822 77.8463H28.8127H21.7245H0.632812V96.8545H35.2093C42.989 96.8545 50.2501 95.6449 56.4739 93.3985C63.0434 90.9792 68.4028 87.6959 72.8977 83.7215C77.3927 79.4015 81.0232 74.3902 83.4435 68.6877C85.8639 62.8125 87.0741 56.5916 87.0741 49.6795C87.247 42.5947 86.0368 36.0283 83.6164 30.3258Z" fill="#E94973"/>
<path d="M230.972 21.2551H181.009V39.0536H225.612V57.5432H181.009V77.761H233.392V96.769H160.09V2.07422H230.972V21.2551Z" fill="#E94973"/>
<path d="M362.407 20.9089C357.739 19.5265 352.898 18.8352 347.884 18.8352C341.661 18.8352 337.339 19.6993 334.572 21.2545C331.806 22.9825 330.596 25.2289 330.596 28.1665C330.596 30.9313 331.633 33.0049 333.535 34.2145C335.437 35.5969 338.549 36.6337 343.044 37.1521L356.874 39.0529C367.247 40.4353 375.027 43.5457 380.213 48.7297C385.227 53.5681 387.82 59.9617 387.82 68.0833C387.82 72.749 386.956 76.8961 385.054 80.6978C383.152 84.4994 380.732 87.7826 377.274 90.3746C373.817 93.1394 369.495 95.213 364.308 96.5954C359.295 98.1506 353.417 98.8418 346.674 98.8418C338.894 98.8418 331.633 97.9779 325.237 96.4227C318.84 94.8674 312.443 92.1026 306.393 87.9554L315.382 70.5026C320.569 73.7858 325.928 76.205 331.288 77.5874C336.474 78.9698 342.179 79.661 348.057 79.661C354.281 79.661 358.949 78.6242 362.061 76.8962C365 74.9954 366.556 72.5762 366.556 69.293C366.556 66.5282 365.518 64.2818 363.444 62.7266C361.369 61.1714 357.912 59.9618 353.071 59.2706L338.549 57.3697C329.386 56.1601 322.125 53.2225 317.111 48.7297C312.098 44.2369 309.504 37.6705 309.504 29.0305C309.504 24.3649 310.369 20.0449 312.271 16.5888C313.999 12.96 316.593 9.84965 319.877 7.43045C323.162 5.01124 327.311 3.11042 331.806 1.90081C336.647 0.518412 341.661 0 347.366 0C354.973 0 362.061 1.03677 368.457 2.93758C374.854 4.83838 380.559 7.94881 385.227 11.9232L374.681 27.1296C371.224 24.5376 367.074 22.4641 362.407 20.9089Z" fill="#E94973"/>
<path d="M481.739 21.1689H531.702V1.98828H460.82C460.82 12.529 469.292 21.1689 480.01 21.1689H481.739Z" fill="#E94973"/>
<path d="M481.739 77.8469V57.6292H526.343V38.9668H481.739H460.82V96.855H534.123V77.8469H481.739Z" fill="#E94973"/>
<path d="M654.146 44.2378H655.529L676.794 2.07422H702.035L665.211 65.1468V96.7695H643.946V65.1468L607.122 2.07422H632.536L654.146 44.2378Z" fill="#E94973"/>
<path d="M845.917 21.2551H795.954V39.0536H840.558V57.5432H795.954V77.761H848.337V96.769H775.035V2.07422H845.917V21.2551Z" fill="#E94973"/>
<path d="M1007.09 96.7695H985.822L942.083 36.289V96.7695H921.337V2.07422H940.354L986.341 66.0108V2.07422H1006.91V96.7695H1007.09Z" fill="#E94973"/>
<path d="M1150.97 21.2551H1101.01V39.0536H1145.61V57.5432H1101.01V77.761H1153.39V96.769H1080.09V2.07422H1150.97V21.2551Z" fill="#E94973"/>
<path d="M1286.9 62.9004C1292.95 60.3083 1297.79 56.5067 1301.25 51.6683C1304.7 46.657 1306.26 40.9546 1306.26 34.3881C1306.26 29.3769 1305.4 25.0568 1303.49 21.0824C1301.59 17.108 1299.17 13.652 1296.06 10.8872C1292.6 8.12233 1288.8 5.87594 1284.3 4.32072C1279.81 2.76551 1274.8 2.07422 1269.26 2.07422H1226.39C1226.39 12.6151 1234.86 21.0824 1245.41 21.0824H1247.65H1249.04H1268.4C1273.41 21.0824 1277.39 22.2921 1280.33 24.7113C1283.27 27.3033 1284.65 30.7593 1284.65 35.2521C1284.65 39.745 1283.09 43.3739 1279.98 45.7931C1277.04 48.3851 1272.89 49.5946 1267.88 49.5946H1249.04H1247.65H1226.39V96.7695H1247.65V68.43H1266.84L1284.3 96.7695H1310.06L1286.9 62.9004Z" fill="#E94973"/>
</svg>
