<svg width="133" height="307" viewBox="0 0 133 307" fill="none" xmlns="http://www.w3.org/2000/svg">
    <g opacity="0.05">
        <path d="M92.7734 254.848C102.033 250.97 109.382 245.183 114.533 237.602C119.683 230.079 122.287 221.225 122.287 211.329C122.287 203.806 121.014 197.093 118.178 191.075C115.401 185.056 111.523 179.906 106.778 175.565C101.628 171.225 95.7827 168.042 88.8961 165.669C82.0095 163.297 74.4864 162.197 66.0952 162.197H0.817383C0.817383 178.112 13.7225 191.075 29.6947 191.075H33.109H35.1345H64.5326C72.2873 191.075 78.3058 193.042 82.6461 196.688C87.16 200.565 89.3012 205.947 89.3012 212.834C89.3012 219.72 86.9285 225.102 82.1831 228.98C77.6692 232.857 71.4192 234.825 63.6646 234.825H35.1345H33.109H0.817383V306.584H33.109V263.528H62.2178L88.7225 306.584H127.959L92.7734 254.848Z" fill="#010202"/>
        <path d="M126.801 43.215C123.155 34.4187 117.947 26.6062 111.06 20.3562C104.405 13.8747 96.1877 8.95573 86.5234 5.25202C76.859 1.7798 66.0373 0.101562 54.0003 0.101562H0.817383C0.817383 16.1895 13.8382 29.2104 29.9262 29.2104H32.9354H43.5836H53.3637C68.4678 29.2104 80.0998 32.8562 87.8544 40.2057C96.0141 47.5553 99.8915 58.3192 99.8915 72.3238C99.8915 78.9789 98.6183 84.9974 96.4192 90.4372C93.8151 95.8192 90.8058 100.102 86.5234 104.037C82.6461 107.509 77.6692 110.518 71.8822 112.428C66.2688 114.396 60.2503 115.437 53.5952 115.437H43.5836H32.9354H0.817383V144.488H53.3637C65.2271 144.488 76.2225 142.752 85.6553 139.106C95.5512 135.46 103.769 130.484 110.655 124.234C117.542 117.752 122.924 109.997 126.628 101.375C130.273 92.347 132.241 82.8562 132.241 72.3238C132.183 61.7914 130.505 51.8377 126.801 43.215Z" fill="#010202"/>
    </g>
</svg>
