<svg width="246" height="573" viewBox="0 0 246 573" fill="none" xmlns="http://www.w3.org/2000/svg">
<path d="M171.473 475.704C188.733 468.477 202.432 457.69 212.033 443.559C221.633 429.536 226.487 413.032 226.487 394.586C226.487 380.563 224.114 368.05 218.828 356.831C213.651 345.613 206.423 336.012 197.578 327.922C187.978 319.832 177.083 313.899 164.246 309.476C151.41 305.053 137.386 303.004 121.745 303.004H0.0673828C0.0673828 332.668 24.1225 356.831 53.8947 356.831H60.259H64.0345H118.833C133.287 356.831 144.506 360.499 152.596 367.295C161.01 374.522 165.001 384.554 165.001 397.39C165.001 410.227 160.578 420.259 151.733 427.486C143.319 434.714 131.669 438.381 117.215 438.381H64.0345H60.259H0.0673828V572.141H60.259V491.885H114.518L163.922 572.141H237.059L171.473 475.704Z" fill="white"/>
<path d="M234.901 81.2228C228.105 64.8265 218.397 50.264 205.56 38.614C193.155 26.5325 177.838 17.3635 159.823 10.4598C141.809 3.98761 121.637 0.859375 99.2003 0.859375H0.0673828C0.0673828 30.8473 24.3382 55.1182 54.3262 55.1182H59.9354H79.7836H98.0137C126.168 55.1182 147.85 61.914 162.304 75.6135C177.514 89.3131 184.741 109.377 184.741 135.482C184.741 147.887 182.368 159.105 178.269 169.245C173.415 179.277 167.806 187.259 159.823 194.595C152.596 201.067 143.319 206.676 132.532 210.236C122.069 213.903 110.85 215.845 98.4452 215.845H79.7836H59.9354H0.0673828V269.996H98.0137C120.127 269.996 140.622 266.76 158.205 259.964C176.651 253.168 191.969 243.891 204.805 232.241C217.642 220.16 227.674 205.705 234.578 189.633C241.373 172.805 245.041 155.114 245.041 135.482C244.933 115.849 241.805 97.2955 234.901 81.2228Z" fill="white"/>
</svg>
