<svg width="109" height="72" viewBox="0 0 109 72" fill="none" xmlns="http://www.w3.org/2000/svg">
<path d="M31.48 52.72C39.16 41.2 48.04 19.84 36.04 7.83999C28.36 0.159986 15.64 0.159986 7.96 7.83999C0.280001 15.76 0.280001 28.48 8.2 35.92C12.04 39.76 16.84 41.2 21.64 41.68C25.48 42.16 22.36 57.76 8.68 68.32L11.32 71.68C22.36 65.68 28.12 58 31.48 52.72ZM91.48 52.72C99.16 41.2 108.04 19.84 96.04 7.83999C88.36 0.159986 75.64 0.159986 67.96 7.83999C60.28 15.76 60.28 28.48 68.2 35.92C72.04 39.76 76.84 41.2 81.64 41.68C85.48 42.16 82.36 57.76 68.68 68.32L71.32 71.68C82.36 65.68 88.12 58 91.48 52.72Z" fill="#7BC9CE"/>
</svg>
