<svg width="108" height="72" viewBox="0 0 108 72" fill="none" xmlns="http://www.w3.org/2000/svg">
<path d="M16.56 19.08C8.88 30.6 8.9407e-08 51.96 12 63.96C19.68 71.64 32.4 71.64 40.08 63.96C47.76 56.04 47.76 43.32 39.84 35.88C36 32.04 31.2 30.6 26.4 30.12C22.56 29.64 25.68 14.04 39.36 3.47999L36.72 0.119988C25.68 6.12 19.92 13.8 16.56 19.08ZM76.56 19.08C68.88 30.6 60 51.96 72 63.96C79.68 71.64 92.4 71.64 100.08 63.96C107.76 56.04 107.76 43.32 99.84 35.88C96 32.04 91.2 30.6 86.4 30.12C82.56 29.64 85.68 14.04 99.36 3.47999L96.72 0.119988C85.68 6.12 79.92 13.8 76.56 19.08Z" fill="#7BC9CE"/>
</svg>
