<svg width="15" height="11" viewBox="0 0 15 11" fill="none" xmlns="http://www.w3.org/2000/svg">
<path d="M14.7779 4.13045C14.7779 3.82015 14.7262 3.45813 14.7262 3.0444C14.6745 2.63066 14.6228 2.21692 14.5711 1.8549C14.4676 1.44116 14.3125 1.13086 14.0022 0.872276C13.7436 0.61369 13.3816 0.458534 13.0195 0.406817C11.83 0.251665 10.0717 0.199951 7.69268 0.199951C5.31369 0.199951 3.50358 0.251665 2.3658 0.406817C2.00378 0.458534 1.64177 0.61369 1.38318 0.872276C1.12459 1.13086 0.917722 1.44116 0.814287 1.8549C0.710853 2.21692 0.659142 2.57894 0.659142 3.0444C0.607425 3.45813 0.607422 3.82015 0.607422 4.13045C0.607422 4.44076 0.607422 4.80278 0.607422 5.31995C0.607422 5.83712 0.607422 6.25086 0.607422 6.50945C0.607422 6.81975 0.659142 7.18177 0.659142 7.59551C0.710859 8.00925 0.76257 8.42298 0.814287 8.785C0.917722 9.19874 1.07288 9.50904 1.38318 9.76763C1.64177 10.0262 2.00378 10.1814 2.3658 10.2331C3.5553 10.3882 5.31369 10.44 7.69268 10.44C10.0717 10.44 11.8818 10.3882 13.0195 10.2331C13.3816 10.1814 13.7436 10.0262 14.0022 9.76763C14.2608 9.50904 14.4676 9.19874 14.5711 8.785C14.6745 8.42298 14.7262 8.06096 14.7262 7.59551C14.7779 7.18177 14.7779 6.81975 14.7779 6.50945C14.7779 6.19914 14.7779 5.83712 14.7779 5.31995C14.7779 4.80278 14.7779 4.38904 14.7779 4.13045ZM10.4337 5.73369L6.34803 8.26783C6.29631 8.31954 6.19288 8.37127 6.08945 8.37127C5.98601 8.37127 5.93429 8.37126 5.83086 8.31955C5.67571 8.21611 5.57227 8.06096 5.57227 7.8541V2.73409C5.57227 2.52722 5.67571 2.37207 5.83086 2.26864C5.98601 2.1652 6.19288 2.1652 6.34803 2.26864L10.4337 4.80278C10.5888 4.90621 10.6923 5.06136 10.6923 5.21652C10.6923 5.37167 10.5888 5.63025 10.4337 5.73369Z" fill="white"/>
</svg>
